<svg width="328" height="256" viewBox="0 0 328 256" fill="none" xmlns="http://www.w3.org/2000/svg">
<rect x="8" y="8" width="16" height="16" rx="2" fill="#151B1E" fill-opacity="0.05"/>
<rect x="36" y="11" width="284" height="10" rx="3" fill="#151B1E" fill-opacity="0.05"/>
<rect x="8" y="40" width="16" height="16" rx="2" fill="#151B1E" fill-opacity="0.05"/>
<rect x="36" y="43" width="212" height="10" rx="3" fill="#151B1E" fill-opacity="0.05"/>
<rect x="8" y="72" width="16" height="16" rx="2" fill="#151B1E" fill-opacity="0.05"/>
<rect x="36" y="75" width="172" height="10" rx="3" fill="#151B1E" fill-opacity="0.05"/>
<rect x="8" y="104" width="16" height="16" rx="2" fill="#151B1E" fill-opacity="0.05"/>
<rect x="36" y="107" width="172" height="10" rx="3" fill="#151B1E" fill-opacity="0.05"/>
<rect x="8" y="136" width="16" height="16" rx="2" fill="#151B1E" fill-opacity="0.05"/>
<rect x="36" y="139" width="80" height="10" rx="3" fill="#151B1E" fill-opacity="0.05"/>
<rect x="8" y="168" width="16" height="16" rx="2" fill="#151B1E" fill-opacity="0.05"/>
<rect x="36" y="171" width="212" height="10" rx="3" fill="#151B1E" fill-opacity="0.05"/>
<rect x="8" y="200" width="16" height="16" rx="2" fill="#151B1E" fill-opacity="0.05"/>
<rect x="36" y="203" width="80" height="10" rx="3" fill="#151B1E" fill-opacity="0.05"/>
<rect x="8" y="232" width="16" height="16" rx="2" fill="#151B1E" fill-opacity="0.05"/>
<rect x="36" y="235" width="172" height="10" rx="3" fill="#151B1E" fill-opacity="0.05"/>
</svg>
